HIERARCHY
ROOT Hips
{
	OFFSET 0.00000 0.00000 0.00000
	CHANNELS 6 Xposition Yposition Zposition Zrotation Yrotation Xrotation 
	JOINT LHipJoint
	{
		OFFSET 0 0 0
		CHANNELS 3 Zrotation Yrotation Xrotation
		JOINT LeftUpLeg
		{
			OFFSET 1.53139 -1.83434 0.76626
			CHANNELS 3 Zrotation Yrotation Xrotation
			JOINT LeftLeg
			{
				OFFSET 2.56112 -7.03663 0.00000
				CHANNELS 3 Zrotation Yrotation Xrotation
				JOINT LeftFoot
				{
					OFFSET 2.59983 -7.14299 0.00000
					CHANNELS 3 Zrotation Yrotation Xrotation
					JOINT LeftToeBase
					{
						OFFSET 0.13742 -0.37757 2.00054
						CHANNELS 3 Zrotation Yrotation Xrotation
						End Site
						{
							OFFSET 0.00000 -0.00000 1.02897
						}
					}
				}
			}
		}
	}
	JOINT RHipJoint
	{
		OFFSET 0 0 0
		CHANNELS 3 Zrotation Yrotation Xrotation
		JOINT RightUpLeg
		{
			OFFSET -1.40122 -1.83435 0.76627
			CHANNELS 3 Zrotation Yrotation Xrotation
			JOINT RightLeg
			{
				OFFSET -2.54052 -6.98003 0.00000
				CHANNELS 3 Zrotation Yrotation Xrotation
				JOINT RightFoot
				{
					OFFSET -2.63179 -7.23079 0.00000
					CHANNELS 3 Zrotation Yrotation Xrotation
					JOINT RightToeBase
					{
						OFFSET -0.24131 -0.66299 2.03908
						CHANNELS 3 Zrotation Yrotation Xrotation
						End Site
						{
							OFFSET -0.00000 -0.00000 1.07391
						}
					}
				}
			}
		}
	}
	JOINT LowerBack
	{
		OFFSET 0 0 0
		CHANNELS 3 Zrotation Yrotation Xrotation
		JOINT Spine
		{
			OFFSET 0.01174 2.10302 -0.29778
			CHANNELS 3 Zrotation Yrotation Xrotation
			JOINT Spine1
			{
				OFFSET 0.00772 2.13227 -0.01247
				CHANNELS 3 Zrotation Yrotation Xrotation
				JOINT Neck
				{
					OFFSET 0 0 0
					CHANNELS 3 Zrotation Yrotation Xrotation
					JOINT Neck1
					{
						OFFSET -0.09219 1.60848 0.31481
						CHANNELS 3 Zrotation Yrotation Xrotation
						JOINT Head
						{
							OFFSET 0.13974 1.65456 -0.31134
							CHANNELS 3 Zrotation Yrotation Xrotation
							End Site
							{
								OFFSET 0.04742 1.69515 -0.14578
							}
						}
					}
				}
				JOINT LeftShoulder
				{
					OFFSET 0 0 0
					CHANNELS 3 Zrotation Yrotation Xrotation
					JOINT LeftArm
					{
						OFFSET 3.24909 1.02882 -0.23993
						CHANNELS 3 Zrotation Yrotation Xrotation
						JOINT LeftForeArm
						{
							OFFSET 5.32955 -0.00000 -0.00000
							CHANNELS 3 Zrotation Yrotation Xrotation
							JOINT LeftHand
							{
								OFFSET 3.69232 -0.00000 -0.00000
								CHANNELS 3 Zrotation Yrotation Xrotation
								JOINT LeftFingerBase
								{
									OFFSET 0 0 0
									CHANNELS 3 Zrotation Yrotation Xrotation
									JOINT LeftHandIndex1
									{
										OFFSET 0.53660 -0.00000 -0.00000
										CHANNELS 3 Zrotation Yrotation Xrotation
										End Site
										{
											OFFSET 0.43262 -0.00000 -0.00000
										}
									}
								}
								JOINT LThumb
								{
									OFFSET 0 0 0
									CHANNELS 3 Zrotation Yrotation Xrotation
									End Site
									{
										OFFSET 0.43922 -0.00000 0.43922
									}
								}
							}
						}
					}
				}
				JOINT RightShoulder
				{
					OFFSET 0 0 0
					CHANNELS 3 Zrotation Yrotation Xrotation
					JOINT RightArm
					{
						OFFSET -3.21387 0.93002 -0.34594
						CHANNELS 3 Zrotation Yrotation Xrotation
						JOINT RightForeArm
						{
							OFFSET -5.23431 -0.00000 0.00000
							CHANNELS 3 Zrotation Yrotation Xrotation
							JOINT RightHand
							{
								OFFSET -3.55301 -0.00000 -0.00000
								CHANNELS 3 Zrotation Yrotation Xrotation
								JOINT RightFingerBase
								{
									OFFSET 0 0 0
									CHANNELS 3 Zrotation Yrotation Xrotation
									JOINT RightHandIndex1
									{
										OFFSET -0.77252 -0.00000 -0.00000
										CHANNELS 3 Zrotation Yrotation Xrotation
										End Site
										{
											OFFSET -0.62283 -0.00000 -0.00000
										}
									}
								}
								JOINT RThumb
								{
									OFFSET 0 0 0
									CHANNELS 3 Zrotation Yrotation Xrotation
									End Site
									{
										OFFSET -0.63234 -0.00000 0.63234
									}
								}
							}
						}
					}
				}
			}
		}
	}
}
MOTION
Frames: 8
Frame Time: .0083333
-4.1356 17.7881 7.9037 1.6065 10.4417 -4.7924 0.0000 0.0000 0.0000 -13.0222 -7.8766 -13.5242 3.3034 11.1706 32.8576 0.1628 -0.8044 -7.3775 0.0082 -0.5852 -1.6080 0.0000 0.0000 0.0000 17.2132 -0.5899 -2.1360 -2.5439 -9.9174 28.7095 -0.9509 1.5613 -17.9699 -0.0815 1.8419 -5.0689 1.8886 2.6085 12.7154 0.1273 3.7335 1.6462 -1.5617 1.8032 -5.2749 -9.3072 2.7723 -16.8959 4.3446 6.5105 41.0999 4.9518 1.9309 17.5385 0.0000 0.0000 0.0000 -88.4183 3.9469 11.9837 22.3086 -33.3240 -6.7546 -0.0000 -0.0000 4.4874 23.7393 26.1550 10.9712 -7.1250 0.0000 -0.0000 -6.9537 58.0573 -2.2288 0.0000 0.0000 0.0000 86.8433 -2.5303 12.2111 -19.2132 29.6827 -5.1360 0.0000 0.0000 5.0682 -15.9010 7.2951 -2.0717 7.1250 -0.0000 -0.0000 7.9545 -22.4203 4.3604
-4.0917 17.8021 7.9154 1.4918 10.7679 -4.7713 0.0000 0.0000 0.0000 -12.1871 -8.3030 -13.3175 3.2232 11.0478 32.4413 0.1460 -0.2652 -7.1253 0.0000 -0.0358 -0.0983 0.0000 0.0000 0.0000 17.2516 -0.6732 -1.8056 -2.4805 -9.8025 28.3393 -0.9533 1.2327 -18.0797 -0.0818 1.8445 -5.0761 1.9853 2.5425 12.8224 0.1146 3.6617 1.6066 -1.6244 1.7638 -5.3716 -9.2335 2.8797 -17.3594 4.6034 6.6422 41.5475 5.1414 1.9994 17.8870 0.0000 -0.0000 0.0000 -88.4225 4.1367 11.6464 22.0163 -32.9954 -6.5947 -0.0000 -0.0000 4.7484 23.7150 26.0303 10.9115 -7.1250 0.0000 -0.0000 -6.9246 57.9228 -2.1970 0.0000 -0.0000 0.0000 86.7848 -2.5006 12.0415 -19.1522 29.6073 -5.1058 0.0000 0.0000 4.9686 -15.7975 7.1221 -2.0090 7.1250 -0.0000 -0.0000 8.0357 -22.6022 4.3721
-4.0464 17.8108 7.9309 1.5081 11.0042 -4.7517 0.0000 0.0000 0.0000 -11.4874 -8.6741 -13.0666 3.1297 10.9021 31.9503 0.1346 0.1006 -6.9671 0.0040 0.4089 1.1235 0.0000 0.0000 0.0000 17.1325 -0.6588 -1.5490 -2.4311 -9.7115 28.0475 -0.9412 0.8996 -18.0563 -0.0777 1.7977 -4.9469 1.8855 2.4915 12.8616 0.1182 3.5814 1.6074 -1.5533 1.7259 -5.4019 -9.0567 2.9931 -17.5374 4.4899 6.8335 41.6335 5.1080 2.0797 17.9790 -0.0000 0.0000 0.0000 -88.4934 4.2668 11.1034 21.6260 -32.5518 -6.3834 -0.0000 -0.0000 5.0352 23.5717 25.2656 10.5488 -7.1250 0.0000 -0.0000 -6.7496 57.0978 -2.0067 -0.0000 0.0000 0.0000 86.6295 -2.4404 12.0718 -19.1005 29.5433 -5.0803 0.0000 0.0000 4.7255 -15.9630 7.0371 -2.0071 7.1250 -0.0000 -0.0000 7.9178 -22.6832 4.2919
-3.9910 17.8094 7.9496 1.4753 11.0913 -4.7068 0.0000 0.0000 0.0000 -10.7887 -8.8478 -12.8834 3.0232 10.7325 31.3829 0.1239 0.4184 -6.8125 0.0003 -0.1034 -0.2840 0.0000 0.0000 0.0000 17.0293 -0.6061 -1.3612 -2.3924 -9.6396 27.8174 -0.9315 0.6254 -18.0442 -0.0921 1.9568 -5.3864 1.9761 2.5446 12.8436 0.0690 3.6619 1.5524 -1.6700 1.7620 -5.4380 -8.9141 2.9974 -17.3949 4.3818 6.8066 41.4922 5.0099 2.0883 17.8750 0.0000 -0.0000 0.0000 -88.4839 4.3623 10.4995 21.0485 -31.8850 -6.0756 -0.0000 -0.0000 5.5604 23.7046 24.6707 10.3852 -7.1250 0.0000 -0.0000 -6.3627 56.5075 -1.8002 0.0000 -0.0000 0.0000 86.6161 -2.5492 11.8262 -19.0719 29.5079 -5.0662 0.0000 0.0000 4.6343 -15.9901 7.0272 -2.0078 7.1250 -0.0000 -0.0000 7.8984 -22.6924 4.2795
-3.9325 17.8126 7.9734 1.6263 11.1592 -4.5825 0.0000 0.0000 0.0000 -10.2954 -8.9315 -12.6279 2.9148 10.5559 30.7964 0.1153 0.6320 -6.6763 0.0001 -0.0546 -0.1501 0.0000 0.0000 0.0000 16.7169 -0.5552 -1.1693 -2.3536 -9.5667 27.5846 -0.9215 0.3235 -18.0413 -0.1174 2.2093 -6.0845 1.9019 2.6122 12.7210 -0.0416 3.7328 1.5069 -1.7509 1.7977 -5.4126 -8.7529 3.0030 -17.3042 4.2492 6.7992 41.4230 4.9097 2.0981 17.8283 0.0000 -0.0000 0.0000 -88.4848 4.4703 9.8877 20.5482 -31.2971 -5.8134 -0.0000 -0.0000 5.9606 23.7790 24.3022 10.2780 -7.1250 0.0000 -0.0000 -6.1384 56.1389 -1.6815 0.0000 -0.0000 0.0000 86.5951 -2.6376 11.6022 -19.0302 29.4561 -5.0457 0.0000 0.0000 4.5688 -15.9213 7.0835 -2.0147 7.1250 -0.0000 -0.0000 7.9468 -22.6371 4.3164
-3.8760 17.8202 7.9951 1.8430 11.2925 -4.4699 0.0000 0.0000 0.0000 -9.8375 -9.1428 -12.3203 2.8167 10.3922 30.2565 0.1030 0.7563 -6.3885 0.0084 0.5915 1.6254 0.0000 0.0000 0.0000 16.3288 -0.6237 -0.9608 -2.3069 -9.4780 27.3024 -0.9097 0.0309 -18.0221 -0.1672 2.6340 -7.2615 1.6901 2.6339 12.6505 -0.1190 3.7265 1.5045 -1.7084 1.7989 -5.3845 -8.7699 2.9893 -17.4012 4.2312 6.8064 41.4245 4.9110 2.0940 17.8552 -0.0000 0.0000 0.0000 -88.5640 4.5486 9.3497 20.1789 -30.8572 -5.6228 -0.0000 -0.0000 6.2261 23.4126 23.9174 9.9566 -7.1250 0.0000 -0.0000 -6.3801 55.6605 -1.6740 -0.0000 0.0000 0.0000 86.4244 -2.6029 11.6250 -18.9774 29.3906 -5.0197 0.0000 0.0000 4.4658 -15.9232 7.0742 -2.0123 7.1250 -0.0000 -0.0000 7.9457 -22.6465 4.3141
-3.8200 17.8347 8.0120 1.7733 11.4222 -4.4969 0.0000 0.0000 0.0000 -9.0262 -9.5896 -11.8215 2.7172 10.2225 29.7003 0.0896 0.8889 -6.0515 0.1215 2.2473 6.1896 0.0000 0.0000 0.0000 16.2718 -0.6154 -0.6505 -2.2595 -9.3870 27.0134 -0.8919 -0.2852 -17.9561 -0.2020 2.8937 -7.9831 1.7515 2.6135 12.7443 -0.1196 3.7098 1.4948 -1.7461 1.7882 -5.4434 -8.7790 2.9981 -17.5117 4.2625 6.8287 41.4601 4.9397 2.1022 17.9002 0.0000 0.0000 0.0000 -88.6240 4.6184 8.6944 19.8088 -30.4113 -5.4342 -0.0000 -0.0000 6.5648 23.1319 23.6300 9.7167 -7.1250 0.0000 -0.0000 -6.5676 55.3032 -1.6665 0.0000 0.0000 0.0000 86.2515 -2.5399 11.6447 -18.8782 29.2670 -4.9711 0.0000 0.0000 4.5274 -16.0757 7.1169 -2.0448 7.1250 -0.0000 -0.0000 7.8330 -22.5966 4.2607
-3.7616 17.8476 8.0326 1.7130 11.5644 -4.5294 0.0000 0.0000 0.0000 -8.2650 -10.1010 -11.2561 2.6171 10.0478 29.1317 0.0741 1.1018 -5.6721 0.3099 3.5788 9.8944 0.0000 0.0000 0.0000 16.2004 -0.5098 -0.2820 -2.2143 -9.2989 26.7350 -0.8764 -0.5753 -17.9084 -0.1934 2.8322 -7.8119 1.8202 2.6212 12.7241 -0.1656 3.7263 1.5230 -1.8334 1.7957 -5.3942 -8.6819 3.0001 -17.5071 4.2966 6.7733 41.3768 4.9222 2.1058 17.8564 0.0000 -0.0000 0.0000 -88.5849 4.5665 8.0672 19.3551 -29.8576 -5.2065 -0.0000 -0.0000 6.9294 23.2520 23.8467 9.8548 -7.1250 0.0000 -0.0000 -6.5231 55.5537 -1.6948 0.0000 -0.0000 0.0000 86.1972 -2.4920 11.5828 -18.8081 29.1795 -4.9369 0.0000 0.0000 4.5892 -16.2055 7.1293 -2.0657 7.1250 -0.0000 -0.0000 7.7378 -22.5786 4.2112
